<svg width="46" height="57" viewBox="0 0 46 57" fill="none" xmlns="http://www.w3.org/2000/svg">
<rect opacity="0.4" x="0.5" y="0.5" width="55" height="56" stroke="url(#paint0_linear_18_1679)"/>
<path d="M32.7071 28.7071C33.0976 28.3166 33.0976 27.6834 32.7071 27.2929L26.3431 20.9289C25.9526 20.5384 25.3195 20.5384 24.9289 20.9289C24.5384 21.3195 24.5384 21.9526 24.9289 22.3431L30.5858 28L24.9289 33.6569C24.5384 34.0474 24.5384 34.6805 24.9289 35.0711C25.3195 35.4616 25.9526 35.4616 26.3431 35.0711L32.7071 28.7071ZM13 29L32 29L32 27L13 27L13 29Z" fill="white"/>
<defs>
<linearGradient id="paint0_linear_18_1679" x1="1.5" y1="25" x2="39" y2="24.5" gradientUnits="userSpaceOnUse">
<stop stop-color="white"/>
<stop offset="1" stop-color="white" stop-opacity="0"/>
</linearGradient>
</defs>
</svg>
